<?xml version="1.0" encoding="UTF-8"?>
<svg width="777px" height="488px" viewBox="0 0 777 488" version="1.1" xmlns="http://www.w3.org/2000/svg" xmlns:xlink="http://www.w3.org/1999/xlink">
    <title>Group 5</title>
    <defs>
        <rect id="path-1" x="0" y="0" width="776.990529" height="269"></rect>
    </defs>
    <g id="koontilista/haku" stroke="none" stroke-width="1" fill="none" fill-rule="evenodd">
        <g id="Single-place-Saavutettavuus" transform="translate(-297.000000, -72.000000)">
            <g id="Group-5" transform="translate(297.000000, 72.000000)">
                <rect id="Rectangle" fill="#00D7A7" x="0" y="0" width="776" height="488"></rect>
                <g id="Group" transform="translate(-0.000000, 219.000000)">
                    <g id="Koros/M/beat" transform="translate(388.495264, 134.500000) scale(1, -1) translate(-388.495264, -134.500000) ">
                        <mask id="mask-2" fill="white">
                            <use xlink:href="#path-1"></use>
                        </mask>
                        <g id="Mask"></g>
                        <path d="M-1051.50474,0 L1828.49526,0 L1828.49526,233.364639 C1803.64005,233.364639 1782.31314,248.051884 1773.10871,269 C1763.90724,248.051884 1742.58034,233.364639 1717.72216,233.364639 C1692.8699,233.364639 1671.543,248.051884 1662.34153,269 C1653.1371,248.051884 1631.8102,233.364639 1606.95498,233.364639 C1582.10272,233.364639 1560.77286,248.051884 1551.57139,269 C1542.36992,248.051884 1521.04006,233.364639 1496.1878,233.364639 C1471.33258,233.364639 1450.00568,248.051884 1440.80125,269 C1431.59978,248.051884 1410.27288,233.364639 1385.41766,233.364639 C1360.56244,233.364639 1339.23554,248.051884 1330.03407,269 C1320.82964,248.051884 1299.50273,233.364639 1274.64752,233.364639 C1249.79526,233.364639 1228.46539,248.051884 1219.26393,269 C1210.06246,248.051884 1188.73259,233.364639 1163.88034,233.364639 C1139.02512,233.364639 1117.69821,248.051884 1108.49378,269 C1099.29232,248.051884 1077.96541,233.364639 1053.11019,233.364639 C1028.25497,233.364639 1006.92807,248.051884 997.726603,269 C988.522174,248.051884 967.19527,233.364639 942.340051,233.364639 C917.487794,233.364639 896.160891,248.051884 886.956461,269 C877.754994,248.051884 856.425128,233.364639 831.569909,233.364639 C806.717652,233.364639 785.390748,248.051884 776.186319,269 C766.984851,248.051884 745.657948,233.364639 720.802729,233.364639 C695.94751,233.364639 674.620606,248.051884 665.419139,269 C656.214709,248.051884 634.887806,233.364639 610.032587,233.364639 C585.18033,233.364639 563.850464,248.051884 554.648997,269 C545.447529,248.051884 524.117663,233.364639 499.265407,233.364639 C474.410188,233.364639 453.083284,248.051884 443.878854,269 C434.677387,248.051884 413.350483,233.364639 388.495264,233.364639 L388.495264,233.364639 L387.750675,233.369037 C363.21472,233.65901 342.221097,248.261365 333.108712,269 C323.907245,248.051884 302.580341,233.364639 277.72216,233.364639 C252.869903,233.364639 231.542999,248.051884 222.341532,269 C213.137102,248.051884 191.810199,233.364639 166.95498,233.364639 C142.102723,233.364639 120.772857,248.051884 111.57139,269 C102.369923,248.051884 81.0400565,233.364639 56.1878,233.364639 C31.332581,233.364639 10.0056773,248.051884 0.801247588,269 C-8.40021966,248.051884 -29.7271233,233.364639 -54.5823423,233.364639 C-79.4375613,233.364639 -100.764465,248.051884 -109.965932,269 C-119.170362,248.051884 -140.497266,233.364639 -165.352485,233.364639 C-190.204741,233.364639 -211.534607,248.051884 -220.736075,269 C-229.937542,248.051884 -251.267408,233.364639 -276.119664,233.364639 C-300.974883,233.364639 -322.301787,248.051884 -331.506217,269 C-340.707684,248.051884 -362.034588,233.364639 -386.889807,233.364639 C-411.745026,233.364639 -433.071929,248.051884 -442.273397,269 C-451.477826,248.051884 -472.80473,233.364639 -497.659949,233.364639 C-522.512206,233.364639 -543.839109,248.051884 -553.043539,269 C-562.245006,248.051884 -583.574872,233.364639 -608.430091,233.364639 C-633.282348,233.364639 -654.609252,248.051884 -663.813681,269 C-673.015149,248.051884 -694.342052,233.364639 -719.197271,233.364639 C-744.05249,233.364639 -765.379394,248.051884 -774.580861,269 C-783.785291,248.051884 -805.112194,233.364639 -829.967413,233.364639 C-854.81967,233.364639 -876.149536,248.051884 -885.351003,269 C-894.552471,248.051884 -915.882337,233.364639 -940.734593,233.364639 C-965.589812,233.364639 -986.916716,248.051884 -996.121146,269 C-1005.32261,248.051884 -1026.64952,233.364639 -1051.50474,233.364639 L-1051.50474,233.364639 L-1051.50474,0 Z" id="Color" fill="#FFE977" mask="url(#mask-2)"></path>
                    </g>
                </g>
            </g>
        </g>
    </g>
</svg>